<?xml version="1.0" standalone="no"?>
<!DOCTYPE svg PUBLIC "-//W3C//DTD SVG 20010904//EN"
 "http://www.w3.org/TR/2001/REC-SVG-20010904/DTD/svg10.dtd">
<svg version="1.0" xmlns="http://www.w3.org/2000/svg"
 width="400.000000pt" height="400.000000pt" viewBox="0 0 400.000000 400.000000"
 preserveAspectRatio="xMidYMid meet">
<metadata>
Created by potrace 1.14, written by Peter Selinger 2001-2017
</metadata>
<g transform="translate(0.000000,400.000000) scale(0.100000,-0.100000)"
fill="#000000" stroke="none">
<path d="M2608 3215 c-2 -1 -41 -6 -88 -10 -46 -3 -87 -8 -90 -10 -3 -2 -21
-6 -40 -9 -95 -15 -246 -74 -336 -131 -30 -19 -57 -35 -60 -35 -3 0 -18 8 -32
19 -77 54 -255 125 -371 146 -114 21 -381 27 -511 12 -93 -11 -223 -37 -236
-48 -7 -5 -14 -22 -17 -37 -3 -15 -7 -38 -10 -52 -3 -14 -8 -41 -11 -60 -2
-19 -7 -55 -11 -80 -12 -86 -12 -301 1 -409 20 -178 72 -336 149 -457 36 -56
37 -59 21 -83 -43 -66 -108 -215 -130 -299 -33 -124 -41 -197 -41 -377 0 -163
8 -252 32 -360 8 -38 15 -76 16 -83 0 -7 12 -15 26 -18 14 -3 42 -10 61 -15
123 -30 434 -44 555 -25 22 4 60 9 84 12 114 14 332 98 405 157 l29 23 56 -36
c111 -72 283 -130 446 -149 82 -10 372 -7 435 4 149 26 206 38 216 46 7 5 15
24 18 42 3 18 8 42 10 53 22 111 30 208 29 359 0 128 -6 196 -29 320 -13 72
-74 228 -116 298 -43 72 -48 85 -37 102 85 136 139 280 164 440 20 132 11 438
-18 580 -2 11 -8 39 -12 62 -4 24 -13 47 -19 52 -10 8 -99 29 -150 36 -12 1
-46 5 -76 9 -54 7 -307 16 -312 11z m-1163 -230 c39 -3 110 -15 159 -27 100
-23 100 -22 -10 -69 -216 -92 -412 -295 -504 -522 -13 -31 -27 -54 -31 -50 -9
10 -36 121 -48 198 -10 66 -7 371 4 423 4 17 13 33 19 33 6 1 22 3 36 5 34 6
282 20 295 17 6 -1 42 -4 80 -8z m1493 0 c17 -4 33 -14 33 -21 1 -8 2 -17 3
-21 19 -78 22 -316 6 -434 -10 -69 -43 -206 -53 -216 -3 -2 -8 9 -12 24 -11
47 -90 197 -133 254 -102 137 -213 230 -364 304 -61 30 -116 52 -121 48 -6 -3
-7 -1 -3 5 10 16 68 33 181 53 102 17 389 20 463 4z m-775 -245 c63 -17 169
-58 199 -78 27 -18 17 -18 -367 -20 -217 -2 -395 0 -395 3 0 2 26 18 58 34 64
33 151 60 227 72 62 9 223 3 278 -11z m352 -212 c9 -9 15 -1047 6 -1053 -6 -3
-980 -9 -1042 -6 -14 1 -16 23 -16 179 -1 97 -2 326 -3 507 0 182 -1 340 -1
352 1 23 1 23 219 25 393 5 830 3 837 -4z m153 -185 c54 -108 72 -179 79 -314
4 -67 0 -120 -11 -174 -17 -82 -74 -226 -91 -232 -7 -2 -10 132 -11 387 -1
215 0 390 2 390 2 0 17 -26 32 -57z m-1316 -361 c2 -204 -1 -372 -5 -372 -10
0 -64 117 -83 180 -33 106 -36 273 -9 385 21 86 87 229 92 200 2 -11 4 -188 5
-393z m1617 -393 c6 -30 14 -65 17 -79 16 -70 9 -458 -9 -476 -19 -19 -339
-32 -448 -18 -70 9 -219 45 -219 53 0 4 19 15 43 25 193 82 340 202 452 371
48 72 114 212 116 247 1 23 37 -67 48 -123z m-1889 69 c0 -23 85 -178 130
-240 102 -135 258 -257 410 -319 44 -18 78 -34 76 -37 -2 -2 -28 -10 -57 -18
-131 -35 -205 -43 -379 -39 -167 3 -230 11 -231 29 0 6 -2 18 -3 26 -17 84
-23 317 -10 410 5 40 27 143 41 193 5 18 23 14 23 -5z m1310 -302 c0 -10 -152
-75 -215 -91 -103 -27 -276 -25 -378 3 -65 19 -197 75 -197 85 0 2 178 4 395
5 217 2 395 1 395 -2z"/>
<path d="M1798 2242 c-120 -1 -218 -5 -218 -8 0 -3 43 -76 96 -162 52 -86 100
-164 105 -172 4 -8 39 -64 75 -125 37 -60 83 -136 102 -168 l34 -59 16 24 c10
12 42 66 73 118 30 52 115 196 188 318 73 123 130 226 127 230 -7 6 -281 8
-598 4z m408 -114 c1 -2 -45 -85 -104 -185 l-107 -181 -33 49 c-17 27 -32 51
-32 53 0 2 -36 62 -79 133 l-79 128 101 5 c105 5 327 4 333 -2z"/>
</g>
</svg>
